# xmcd CD database file
#
# Track frame offsets:
#	150
#	8553
#	29761
#	36320
#	41938
#	46656
#	59123
#	66256
#	72378
#	79064
#	90718
#	96428
#	106172
#	119466
#	126741
#	136297
#	145930
#	150352
#	158764
#	164419
#	173889
#	179572
#
# Disc length: 2646 seconds
#
# Revision: 0
# Processed by: cddbd v1.5.1PL2 Copyright (c) Steve Scherf et al.
# Submitted via: CDex 1.51
#
DISCID=420a5416
DTITLE=Coleccion Millenium - Coleccion Millenium 5
DYEAR=2004
DGENRE=New Age
TTITLE0=El reflejo de tu radio
TTITLE1=Quemad las naves
TTITLE2=No lo dejes
TTITLE3=Todo pasa y Todo queda
TTITLE4=Oración del deseo hacia ti
TTITLE5=Tu compañia invisible
TTITLE6=Las fotografías
TTITLE7=Inolvidables e irrepetibles
TTITLE8=No habrá nadie como tú
TTITLE9=Oración de la paz
TTITLE10=Con las puertas abiertas de par en par
TTITLE11=Hoy no he oído hablar de amor
TTITLE12=Cuando pasen en mis los años
TTITLE13=Milenium siempre
TTITLE14=El Hombre y la mujer
TTITLE15=Te lo pido de persona a persona
TTITLE16=Proverbio árabe
TTITLE17=Un día como hoy agradecí
TTITLE18=La sabiduría
TTITLE19=Unas sobre otras
TTITLE20=Que la vida sea siempre así
TTITLE21=Y la radio seguirá sonando... acariciándote
EXTD=YEAR: 2004
EXTT0=
EXTT1=
EXTT2=
EXTT3=
EXTT4=
EXTT5=
EXTT6=
EXTT7=
EXTT8=
EXTT9=
EXTT10=
EXTT11=
EXTT12=
EXTT13=
EXTT14=
EXTT15=
EXTT16=
EXTT17=
EXTT18=
EXTT19=
EXTT20=
EXTT21=
PLAYORDER=
